<svg width="226" height="37" viewBox="0 0 226 37" fill="none" xmlns="http://www.w3.org/2000/svg">
<g clip-path="url(#clip0)">
<path d="M1.90396 16.371C1.98796 16.371 2.01496 16.345 2.01496 16.262V1.49503L0.010964 1.44203C-0.015036 1.04003 0.010964 0.579025 0.038964 0.176025C1.24796 0.176025 2.75396 0.204025 3.98796 0.204025C7.12096 4.75503 10.8 10.197 13.82 14.73L13.957 14.702C13.928 10.308 13.898 5.88903 13.846 1.49503L11.265 1.47003C11.265 1.06503 11.289 0.609025 11.289 0.204025H14.693C15.631 0.204025 16.564 0.176025 17.33 0.176025C17.361 0.579025 17.33 1.04003 17.33 1.41503L15.654 1.49503C15.601 1.49503 15.576 1.52603 15.576 1.63103L15.492 17.582C15.133 17.746 14.531 17.879 14.035 17.879C11.18 14.052 7.39596 8.66703 3.82796 3.38303H3.65996C3.65996 7.72102 3.65996 12.03 3.63496 16.371L6.37996 16.426C6.37996 16.83 6.35296 17.288 6.35296 17.665H2.72896C1.82296 17.665 0.891964 17.692 0.121964 17.692C0.121964 17.288 0.121964 16.83 0.148964 16.451L1.90396 16.371Z" fill="white"></path>
<path d="M19.669 16.599C19.721 16.573 19.777 16.547 19.801 16.466C21.727 11.668 24.276 4.98699 26.147 0.162986C26.477 0.135986 27.047 0.135986 27.655 0.135986C29.498 4.98699 31.884 11.724 33.671 16.573L35.34 16.653C35.34 17.058 35.34 17.516 35.314 17.893H32.734C31.472 17.893 30.21 17.92 29.111 17.92C29.111 17.516 29.138 17.088 29.138 16.68L31.281 16.599C31.334 16.599 31.361 16.519 31.334 16.466C30.896 15.227 30.374 13.715 29.938 12.586C29.907 12.477 29.854 12.453 29.744 12.453L23.186 12.477C22.714 13.771 22.143 15.335 21.729 16.599L24.196 16.653C24.196 17.058 24.196 17.488 24.17 17.893H20.521C19.724 17.893 18.847 17.92 18.105 17.92C18.105 17.488 18.105 17.088 18.132 16.68L19.669 16.599ZM26.582 3.15199C25.652 5.60699 24.581 8.62399 23.674 11.02C23.621 11.132 23.647 11.185 23.729 11.185H29.498C28.644 8.70799 27.573 5.65699 26.694 3.15199H26.582V3.15199Z" fill="white"></path>
<path d="M36.854 1.55206C36.854 1.14606 36.854 0.718057 36.879 0.311057C38.417 0.285057 40.363 0.258057 42.176 0.258057C43.739 0.258057 44.62 0.311057 45.934 0.661057C47.751 1.14606 49.284 2.81606 49.284 4.73006C49.284 7.10306 47.666 8.77206 45.554 9.58106V9.71606C46.873 10.2841 47.558 11.8191 48.933 14.4311C49.866 16.1561 50.113 16.4271 50.439 16.4271L52.14 16.5081C52.14 16.9111 52.117 17.3441 52.086 17.7751H50.273C49.782 17.7991 48.876 17.7991 48.491 17.7991C47.531 16.5611 45.885 12.8951 45.01 11.5481C44.375 10.6041 43.797 10.3081 42.453 10.3081C41.357 10.3081 41.001 10.3361 40.861 10.3601V16.4521L43.168 16.5361C43.168 16.9381 43.168 17.3721 43.141 17.7991C42.236 17.7991 40.946 17.7751 39.844 17.7751C38.776 17.7751 37.737 17.7991 36.856 17.7991C36.856 17.3721 36.856 16.9381 36.881 16.5361L38.61 16.4521C38.696 16.4521 38.751 16.4271 38.751 16.3711V1.60506L36.854 1.55206ZM40.889 9.01506C41.055 9.06906 41.545 9.06906 42.34 9.06906C45.803 9.06906 47.037 6.91406 47.037 5.29306C47.037 2.76506 45.196 1.49806 42.502 1.49806C41.6 1.49806 41.106 1.55206 40.943 1.60506L40.889 9.01506Z" fill="white"></path>
<path d="M53.2129 9.999C53.2129 6.279 54.8319 3.668 56.8339 2.047C58.7559 0.486 61.1179 0 63.0669 0C64.5459 0 65.8949 0.27 66.5499 0.567C66.6629 2.075 66.7429 3.614 66.8239 5.121C66.3599 5.204 65.7839 5.255 65.2619 5.309L64.8199 2.402C64.7959 2.21 64.6839 2.047 64.6029 1.996C63.9999 1.619 63.2599 1.51 62.3299 1.51C60.8149 1.51 59.1969 2.023 57.9859 3.237C56.4799 4.744 55.5469 6.848 55.5469 9.377C55.5469 11.699 55.9299 13.205 57.2479 14.66C58.2339 15.767 60.0189 16.494 61.8319 16.494C63.4749 16.494 65.3969 15.929 66.6859 15.362C66.8249 15.794 66.9619 16.277 67.0199 16.737C64.9619 17.571 63.0369 18.057 61.4479 18.057C59.5519 18.057 57.6329 17.571 56.1489 16.411C54.3959 15.088 53.2119 12.775 53.2119 10.025V9.999H53.2129Z" fill="white"></path>
<path d="M69.303 1.51004C69.303 1.11004 69.324 0.676043 69.324 0.269043H72.728H75.937C75.937 0.676043 75.914 1.13504 75.914 1.51004L73.751 1.59004C73.692 1.59004 73.665 1.61904 73.665 1.70004L73.613 16.44L75.937 16.519C75.937 16.922 75.937 17.382 75.914 17.787C74.983 17.787 73.751 17.761 72.651 17.761C71.579 17.761 70.37 17.787 69.355 17.787C69.355 17.382 69.355 16.951 69.382 16.547L71.359 16.466C71.442 16.466 71.466 16.411 71.466 16.33V1.59004L69.303 1.51004Z" fill="white"></path>
<path d="M80.5859 15.737C80.6109 15.9 80.6659 15.982 80.8029 16.061C81.3239 16.411 82.3959 16.68 83.3569 16.68C84.6449 16.68 85.8509 16.277 86.4839 15.604C87.1169 14.985 87.3589 14.337 87.3589 13.445C87.3589 11.132 86.0719 10.727 83.4109 9.511C80.9969 8.436 79.2649 7.196 79.2649 4.85C79.2649 3.37 80.0609 2.024 81.0479 1.269C82.0629 0.458 83.6559 0 85.5199 0C86.7879 0 88.2109 0.242 88.8749 0.596C89.0099 1.889 89.1209 3.261 89.1699 4.583C88.7069 4.635 88.1879 4.718 87.6659 4.774L87.1959 2.238C87.1439 2.076 87.0859 1.97 87.0329 1.917C86.5639 1.538 85.8239 1.374 84.9739 1.374C84.0129 1.374 83.0499 1.618 82.3949 2.184C81.8169 2.668 81.3499 3.424 81.3499 4.421C81.3499 6.279 82.2569 6.736 85.1109 7.977C87.8559 9.161 89.4459 10.349 89.4459 12.797C89.4459 14.311 88.8999 15.632 87.8559 16.547C86.7309 17.543 85.1639 18.057 82.9139 18.057C81.5699 18.057 79.8129 17.784 78.8769 17.409C78.7729 16.009 78.6329 14.525 78.5239 13.152C79.0449 13.071 79.5929 12.961 80.0859 12.937L80.5859 15.737Z" fill="white"></path>
<path d="M94.254 15.737C94.281 15.9 94.334 15.982 94.471 16.061C94.991 16.411 96.066 16.68 97.027 16.68C98.317 16.68 99.523 16.277 100.158 15.604C100.79 14.985 101.032 14.337 101.032 13.445C101.032 11.132 99.744 10.727 97.083 9.511C94.667 8.436 92.936 7.196 92.936 4.85C92.936 3.37 93.733 2.024 94.724 1.269C95.732 0.458 97.327 0 99.19 0C100.457 0 101.882 0.242 102.544 0.596C102.675 1.889 102.79 3.261 102.845 4.583C102.382 4.635 101.852 4.718 101.335 4.774L100.865 2.238C100.814 2.076 100.755 1.97 100.706 1.917C100.236 1.538 99.497 1.374 98.644 1.374C97.681 1.374 96.723 1.618 96.064 2.184C95.485 2.668 95.015 3.424 95.015 4.421C95.015 6.279 95.926 6.736 98.783 7.977C101.524 9.161 103.117 10.349 103.117 12.797C103.117 14.311 102.568 15.632 101.524 16.547C100.402 17.543 98.833 18.057 96.585 18.057C95.242 18.057 93.484 17.784 92.552 17.409C92.442 16.009 92.302 14.525 92.194 13.152C92.716 13.071 93.263 12.961 93.757 12.937L94.254 15.737Z" fill="white"></path>
<path d="M136.928 16.4521C137.011 16.4521 137.039 16.3991 137.039 16.3461V1.63106C134.675 1.63106 134.074 1.65806 133.472 1.71106C132.95 1.76606 132.84 1.92806 132.785 2.22306L132.347 4.83906C131.85 4.81206 131.302 4.75606 130.807 4.70406C130.916 3.25006 130.973 1.74106 131.08 0.285057C131.603 0.285057 132.479 0.310057 133.607 0.310057H138.273C139.094 0.310057 142.227 0.310057 142.885 0.285057C144.01 0.285057 144.668 0.285057 145.247 0.258057C145.358 1.71106 145.411 3.22206 145.463 4.67806C145.023 4.73006 144.477 4.78506 143.924 4.83906L143.516 2.22306C143.458 1.92806 143.352 1.76606 142.826 1.71106C142.117 1.65806 141.621 1.63106 139.234 1.63106L139.174 16.4521L141.708 16.5351C141.708 16.9371 141.677 17.3931 141.677 17.7991C140.689 17.7991 139.34 17.7751 138.219 17.7751C137.091 17.7751 135.831 17.7991 134.674 17.7991C134.674 17.3931 134.674 16.9371 134.704 16.5351L136.928 16.4521Z" fill="white"></path>
<path d="M145.934 16.599C145.989 16.573 146.041 16.547 146.069 16.466C147.994 11.668 150.545 4.98699 152.414 0.162986C152.74 0.135986 153.317 0.135986 153.92 0.135986C155.761 4.98699 158.151 11.724 159.933 16.573L161.605 16.653C161.605 17.058 161.605 17.516 161.582 17.893H159C157.734 17.893 156.477 17.92 155.374 17.92C155.374 17.516 155.403 17.088 155.403 16.68L157.545 16.599C157.598 16.599 157.626 16.519 157.598 16.466C157.157 15.227 156.641 13.715 156.198 12.586C156.17 12.477 156.116 12.453 156.01 12.453L149.448 12.477C148.979 13.771 148.407 15.335 147.994 16.599L150.465 16.653C150.465 17.058 150.465 17.488 150.435 17.893H146.784C145.99 17.893 145.111 17.92 144.372 17.92C144.372 17.488 144.372 17.088 144.396 16.68L145.934 16.599ZM152.852 3.15199C151.915 5.60699 150.846 8.62399 149.942 11.02C149.887 11.132 149.911 11.185 149.996 11.185H155.761C154.912 8.70799 153.836 5.65699 152.961 3.15199H152.852V3.15199Z" fill="white"></path>
<path d="M165.67 10.349C165.644 12.99 166.055 14.094 166.799 15.036C167.293 15.682 168.224 16.466 170.065 16.466C171.848 16.466 172.641 15.846 173.249 15.226C173.907 14.551 174.593 12.961 174.593 10.484C174.593 7.89899 174.593 4.31299 174.569 1.59199C174.569 1.50899 174.541 1.48399 174.459 1.48399L172.178 1.40199C172.178 0.997986 172.178 0.565986 172.207 0.161986H175.393C176.377 0.161986 177.394 0.135986 178.246 0.135986C178.246 0.538986 178.246 0.970986 178.216 1.40199L176.462 1.48399L176.407 10.511C176.378 13.445 175.473 15.226 174.484 16.251C173.687 17.058 172.236 17.92 169.983 17.92C168.061 17.92 166.443 17.461 165.29 16.357C163.726 14.875 163.476 12.961 163.476 10.565V1.61899C163.476 1.50899 163.449 1.45599 163.345 1.45599L161.665 1.40199C161.665 0.970986 161.665 0.538986 161.692 0.161986H164.659C165.895 0.161986 167.072 0.135986 168.171 0.135986C168.171 0.538986 168.171 0.970986 168.146 1.40199L165.731 1.45599L165.67 10.349Z" fill="white"></path>
<path d="M180.493 1.55206C180.493 1.14606 180.493 0.718057 180.521 0.311057C182.054 0.285057 184.013 0.258057 185.819 0.258057C187.384 0.258057 188.263 0.311057 189.582 0.661057C191.394 1.14606 192.928 2.81606 192.928 4.73006C192.928 7.10306 191.313 8.77206 189.195 9.58106V9.71606C190.516 10.2841 191.199 11.8191 192.571 14.4311C193.505 16.1561 193.753 16.4271 194.083 16.4271L195.785 16.5081C195.785 16.9111 195.757 17.3441 195.728 17.7751H193.918C193.426 17.7991 192.518 17.7991 192.133 17.7991C191.174 16.5611 189.529 12.8951 188.647 11.5481C188.016 10.6041 187.443 10.3081 186.094 10.3081C184.997 10.3081 184.641 10.3361 184.502 10.3601V16.4521L186.809 16.5361C186.809 16.9381 186.809 17.3721 186.781 17.7991C185.875 17.7991 184.582 17.7751 183.491 17.7751C182.419 17.7751 181.372 17.7991 180.494 17.7991C180.494 17.3721 180.494 16.9381 180.522 16.5361L182.254 16.4521C182.334 16.4521 182.385 16.4271 182.385 16.3711V1.60506L180.493 1.55206ZM184.529 9.01506C184.695 9.06906 185.192 9.06906 185.983 9.06906C189.445 9.06906 190.677 6.91406 190.677 5.29306C190.677 2.76506 188.839 1.49806 186.147 1.49806C185.244 1.49806 184.749 1.55206 184.581 1.60506L184.529 9.01506Z" fill="white"></path>
<path d="M200.231 10.349C200.207 12.99 200.614 14.094 201.356 15.036C201.852 15.682 202.787 16.466 204.625 16.466C206.412 16.466 207.205 15.846 207.811 15.226C208.469 14.551 209.156 12.961 209.156 10.484C209.156 7.89899 209.156 4.31299 209.126 1.59199C209.126 1.50899 209.099 1.48399 209.018 1.48399L206.739 1.40199C206.739 0.997986 206.739 0.565986 206.766 0.161986H209.953C210.94 0.161986 211.953 0.135986 212.807 0.135986C212.807 0.538986 212.807 0.970986 212.78 1.40199L211.025 1.48399L210.967 10.511C210.941 13.445 210.039 15.226 209.045 16.251C208.248 17.058 206.797 17.92 204.547 17.92C202.623 17.92 201.004 17.461 199.853 16.357C198.287 14.875 198.04 12.961 198.04 10.565V1.61899C198.04 1.50899 198.011 1.45599 197.904 1.45599L196.23 1.40199C196.23 0.970986 196.23 0.538986 196.252 0.161986H199.221C200.453 0.161986 201.635 0.135986 202.734 0.135986C202.734 0.538986 202.734 0.970986 202.712 1.40199L200.294 1.45599L200.231 10.349Z" fill="white"></path>
<path d="M216.837 15.737C216.869 15.9 216.925 15.982 217.061 16.061C217.582 16.411 218.651 16.68 219.612 16.68C220.903 16.68 222.108 16.277 222.743 15.604C223.377 14.985 223.628 14.337 223.628 13.445C223.628 11.132 222.333 10.727 219.665 9.511C217.252 8.436 215.526 7.196 215.526 4.85C215.526 3.37 216.321 2.024 217.305 1.269C218.322 0.458 219.916 0 221.781 0C223.047 0 224.467 0.242 225.131 0.596C225.265 1.889 225.379 3.261 225.434 4.583C224.965 4.635 224.442 4.718 223.924 4.774L223.456 2.238C223.4 2.076 223.348 1.97 223.291 1.917C222.822 1.538 222.086 1.374 221.234 1.374C220.271 1.374 219.308 1.618 218.65 2.184C218.074 2.668 217.609 3.424 217.609 4.421C217.609 6.279 218.512 6.736 221.371 7.977C224.111 9.161 225.708 10.349 225.708 12.797C225.708 14.311 225.158 15.632 224.111 16.547C222.986 17.543 221.422 18.057 219.171 18.057C217.828 18.057 216.074 17.784 215.138 17.409C215.03 16.009 214.889 14.525 214.782 13.152C215.303 13.071 215.85 12.961 216.347 12.937L216.837 15.737Z" fill="white"></path>
<path d="M116.902 3.28797C115.894 3.28797 114.927 3.91997 114.927 4.92696C114.927 5.49997 115.064 6.01296 116.644 7.57296C118.343 6.84296 119.113 6.01296 119.113 5.00696C119.113 4.09696 118.482 3.28797 116.902 3.28797ZM116.189 8.93497C113.959 9.76397 112.913 10.792 112.913 12.351C112.913 13.832 114.117 15.254 116.862 15.254C118.521 15.254 119.785 14.879 121.069 13.555L116.189 8.93497ZM121.996 14.405C120.989 15.669 119.035 16.479 116.783 16.479C113.208 16.479 111.452 14.681 111.452 12.273C111.452 10.317 112.617 9.21196 115.362 8.08696C114.334 7.11896 113.584 6.30896 113.584 4.98597C113.584 3.24796 114.947 2.06396 117.02 2.06396C119.587 2.06396 120.456 3.62397 120.456 4.92696C120.456 6.74397 118.976 7.73097 117.515 8.34297L121.839 12.43C122.273 11.858 122.531 10.654 122.59 10.061H123.933C123.933 10.811 123.578 12.194 122.808 13.319L125.829 16.162H123.834L121.996 14.405Z" fill="#AF0D3E"></path>
<path d="M129.994 36.1889H135.81V35.2509H131.107V32.3549H135.459V31.4169H131.107V28.7539H135.775V27.8159H129.994V36.1889ZM120.834 36.1889H121.949V33.2569L123.345 31.9549L126.369 36.1879H127.777L124.106 31.1929L127.635 27.8149H126.193L121.948 31.9899V27.8149H120.833V36.1889H120.834ZM112.578 31.6729V28.7529H115.346C115.87 28.7529 116.249 28.8879 116.485 29.1579C116.719 29.4289 116.836 29.7699 116.836 30.1839C116.836 30.4889 116.784 30.7369 116.679 30.9279C116.574 31.1199 116.433 31.2729 116.255 31.3849C116.08 31.4989 115.874 31.5749 115.64 31.6139C115.407 31.6529 115.16 31.6719 114.902 31.6719H112.578V31.6729ZM111.464 36.1889H112.578V32.6129H115.299C115.565 32.6129 115.782 32.6539 115.95 32.7359C116.118 32.8179 116.252 32.9269 116.353 33.0639C116.456 33.2009 116.531 33.3619 116.578 33.5439C116.624 33.7279 116.664 33.9209 116.695 34.1249C116.734 34.3279 116.757 34.5359 116.765 34.7469C116.771 34.9579 116.781 35.1549 116.788 35.3389C116.795 35.5229 116.811 35.6889 116.841 35.8369C116.868 35.9859 116.92 36.1029 116.998 36.1889H118.242C118.124 36.0479 118.036 35.8859 117.977 35.7029C117.918 35.5199 117.875 35.3279 117.848 35.1289C117.822 34.9299 117.801 34.7229 117.789 34.5079C117.777 34.2919 117.764 34.0829 117.748 33.8809C117.725 33.6759 117.693 33.4809 117.654 33.2929C117.615 33.1049 117.549 32.9359 117.455 32.7829C117.361 32.6299 117.238 32.4999 117.085 32.3899C116.934 32.2809 116.735 32.2019 116.493 32.1549V32.1329C117.002 31.9909 117.37 31.7309 117.601 31.3459C117.831 30.9629 117.948 30.5179 117.948 30.0099C117.948 29.3379 117.72 28.8029 117.267 28.4079C116.814 28.0129 116.192 27.8159 115.403 27.8159H111.462V36.1889H111.464ZM101.53 36.1889H102.679L103.617 33.6679H107.159L108.074 36.1889H109.305L106.033 27.8159H104.802L101.53 36.1889ZM105.389 28.8249H105.412L106.808 32.7299H103.97L105.389 28.8249ZM90.9979 36.1889H92.0549V29.2239H92.0769L94.6929 36.1889H95.6419L98.2569 29.2239H98.2809V36.1889H99.3369V27.8159H97.8119L95.1629 34.8529L92.5229 27.8159H90.9979V36.1889V36.1889ZM77.3539 36.1889H83.1699V35.2509H78.4689V32.3549H82.8199V31.4169H78.4689V28.7539H83.1369V27.8159H77.3539V36.1889V36.1889ZM67.5369 36.1889H68.5919V29.4699H68.6159L72.9909 36.1889H74.2109V27.8159H73.1549V34.6069H73.1329L68.7229 27.8159H67.5369V36.1889ZM63.2229 36.1889H64.3359V27.8159H63.2229V36.1889ZM54.6719 36.1889H60.4889V35.2509H55.7859V32.3549H60.1369V31.4169H55.7859V28.7539H60.4539V27.8159H54.6719V36.1889ZM45.0779 36.1889H47.9519C48.6479 36.1889 49.2489 36.0909 49.7579 35.8959C50.2659 35.7019 50.6839 35.4169 51.0139 35.0459C51.3419 34.6749 51.5829 34.2179 51.7409 33.6729C51.8969 33.1299 51.9749 32.5069 51.9749 31.8039C51.9749 30.4589 51.6259 29.4569 50.9319 28.7999C50.2349 28.1439 49.2429 27.8159 47.9529 27.8159H45.0789V36.1889H45.0779ZM46.1929 28.7529H48.0689C48.5849 28.7529 49.0189 28.8279 49.3709 28.9759C49.7229 29.1249 50.0099 29.3369 50.2319 29.6099C50.4549 29.8839 50.6159 30.2179 50.7129 30.6129C50.8099 31.0079 50.8589 31.4559 50.8589 31.9559C50.8589 32.4729 50.8079 32.9119 50.7019 33.2749C50.5979 33.6399 50.4619 33.9419 50.2969 34.1849C50.1329 34.4269 49.9469 34.6189 49.7409 34.7589C49.5329 34.8999 49.3239 35.0069 49.1129 35.0809C48.9019 35.1549 48.7019 35.2019 48.5149 35.2219C48.3269 35.2419 48.1689 35.2509 48.0439 35.2509H46.1919V28.7529H46.1929ZM31.4569 36.1889H37.2729V35.2509H32.5709V32.3549H36.9219V31.4169H32.5709V28.7539H37.2389V27.8159H31.4569V36.1889V36.1889ZM23.1999 32.3549H25.7449C25.9799 32.3549 26.2059 32.3759 26.4259 32.4179C26.6449 32.4619 26.8379 32.5359 27.0059 32.6419C27.1739 32.7479 27.3089 32.8899 27.4109 33.0709C27.5119 33.2499 27.5619 33.4759 27.5619 33.7509C27.5619 34.2129 27.4209 34.5769 27.1399 34.8479C26.8589 35.1179 26.4759 35.2519 25.9919 35.2519H23.1999V32.3549ZM22.0859 36.1889H26.1329C26.5459 36.1889 26.9119 36.1219 27.2289 35.9839C27.5459 35.8469 27.8109 35.6679 28.0259 35.4449C28.2419 35.2219 28.4039 34.9659 28.5139 34.6769C28.6219 34.3879 28.6779 34.0909 28.6779 33.7849C28.6779 33.2679 28.5399 32.8309 28.2679 32.4719C27.9939 32.1129 27.5979 31.8779 27.0819 31.7689V31.7449C27.4729 31.5879 27.7779 31.3479 27.9969 31.0239C28.2169 30.6999 28.3259 30.3139 28.3259 29.8689C28.3259 29.4549 28.2299 29.0989 28.0379 28.8069C27.8459 28.5149 27.6139 28.2859 27.3399 28.1209C27.2149 28.0429 27.0629 27.9839 26.8829 27.9449C26.7029 27.9059 26.5139 27.8769 26.3149 27.8569C26.1159 27.8369 25.9139 27.8259 25.7109 27.8219C25.5089 27.8179 25.3119 27.8159 25.1249 27.8159H22.0869V36.1889H22.0859ZM23.1999 28.7529H25.4289C25.6699 28.7529 25.8979 28.7669 26.1149 28.7939C26.3299 28.8219 26.5189 28.8819 26.6829 28.9759C26.8469 29.0709 26.9759 29.2049 27.0709 29.3819C27.1639 29.5579 27.2109 29.7899 27.2109 30.0789C27.2109 30.5239 27.0719 30.8589 26.7939 31.0819C26.5179 31.3059 26.0609 31.4159 25.4299 31.4159H23.1999V28.7529ZM13.5829 36.1889H19.3999V35.2509H14.6969V32.3549H19.0479V31.4169H14.6969V28.7539H19.3649V27.8159H13.5829V36.1889V36.1889ZM9.25593 36.1889H10.3699V27.8159H9.25593V36.1889ZM1.35193 36.1889H6.89893V35.2509H2.46493V27.8149H1.35193V36.1889Z" fill="white"></path>
<path d="M144.029 31.9H225.707" stroke="white"></path>
</g>
<defs>
<clipPath id="clip0">
<rect width="225.708" height="36.189" fill="white"></rect>
</clipPath>
</defs>
</svg>